# xmcd
#
# Track frame offsets:
#	150
#	24213
#	54343
#	76763
#	102620
#	128340
#	152435
#	175513
#	197218
#	215310
#	241603
#	264923
#	285485
#	325400
#
# Disc length: 4638 seconds
#
# Revision: 1
# Processed by: cddbd v1.5.1PL0 Copyright (c) Steve Scherf et al.
# Submitted via: CDex 1.50Beta5
#
DISCID=a4121c0e
DTITLE=PAMELA DRIGGS - take me aosis「SIESTA」
DYEAR=2002
DGENRE=ミュージック
TTITLE0=PAMELA DRIGGS/Noites no Rio(Night in Rio)
TTITLE1=Romero Lubambo/Easy Going
TTITLE2=Romero Lubambo/Leblon
TTITLE3=PAMELA DRIGGS/Uma Cancao Sem Tom
TTITLE4=西脇辰弥/Do Not Leave Me
TTITLE5=小池修/When I Fall in Love
TTITLE6=岩田雅之/How Deep Is Your Love/愛はきらめきの中に
TTITLE7=浜口茂外也/I Believe I Can Fly
TTITLE8=小池修/April in Paris
TTITLE9=松原正樹/My Way Home
TTITLE10=Philippe Saisse Acoustique Tri/Summer Breeze
TTITLE11=岩田雅之/More
TTITLE12=Seikou Nagaoka/PLAIN AS BLACK’N WHITE〜Moody Kiss MIX〜
TTITLE13=PAMELA DRIGGS/Samba do Aviao
EXTD=
EXTT0=
EXTT1=
EXTT2=
EXTT3=
EXTT4=
EXTT5=
EXTT6=
EXTT7=
EXTT8=
EXTT9=
EXTT10=
EXTT11=
EXTT12=
EXTT13=
PLAYORDER=
